<?xml version="1.0" encoding="utf-8"?>
<!-- Generator: Adobe Illustrator 16.0.0, SVG Export Plug-In . SVG Version: 6.00 Build 0)  -->
<!DOCTYPE svg PUBLIC "-//W3C//DTD SVG 1.1//EN" "http://www.w3.org/Graphics/SVG/1.1/DTD/svg11.dtd">
<svg version="1.1" id="Capa_1" xmlns="http://www.w3.org/2000/svg" xmlns:xlink="http://www.w3.org/1999/xlink" x="0px" y="0px"
	 width="23.519px" height="23.52px" viewBox="0 0 23.519 23.52" enable-background="new 0 0 23.519 23.52" xml:space="preserve">
<path fill="#C8C8C8" d="M19.604,0H3.914C1.762,0,0,1.759,0,3.914v15.683c0,2.16,1.762,3.923,3.914,3.923h7.844v-8.845H8.816v-3.65
	h2.941v-1.84c0-2.633,1.977-4.776,4.412-4.776h2.941v3.639H16.17c-0.345,0-0.737,0.47-0.737,1.102v1.876h3.679v3.65h-3.679v8.845
	h4.171c2.153,0,3.915-1.763,3.915-3.923V3.914C23.519,1.759,21.757,0,19.604,0z"/>
</svg>
