<?xml version="1.0" encoding="utf-8"?>
<!-- Generator: Adobe Illustrator 16.0.0, SVG Export Plug-In . SVG Version: 6.00 Build 0)  -->
<!DOCTYPE svg PUBLIC "-//W3C//DTD SVG 1.1//EN" "http://www.w3.org/Graphics/SVG/1.1/DTD/svg11.dtd">
<svg version="1.1" id="Capa_1" xmlns="http://www.w3.org/2000/svg" xmlns:xlink="http://www.w3.org/1999/xlink" x="0px" y="0px"
	 width="23.521px" height="23.52px" viewBox="0 0 23.521 23.52" enable-background="new 0 0 23.521 23.52" xml:space="preserve">
<g>
	<g>
		<path fill-rule="evenodd" clip-rule="evenodd" fill="#C8C8C8" d="M16.696,23.52c-3.29,0-6.583,0-9.875,0
			c-0.229-0.043-0.454-0.105-0.683-0.113c-2.691-0.153-4.9-1.844-5.689-4.423C0.232,18.28,0.146,17.538,0,16.813
			C0,13.439,0,10.072,0,6.7c0.038-0.21,0.095-0.416,0.111-0.627c0.213-2.768,1.968-4.967,4.586-5.694
			C5.352,0.199,6.034,0.121,6.701,0c3.371,0,6.741,0,10.113,0c0.191,0.036,0.376,0.093,0.566,0.109
			c2.934,0.212,5.111,2.025,5.813,4.878c0.147,0.596,0.221,1.22,0.328,1.827c0,3.297,0,6.588,0,9.878
			c-0.04,0.211-0.104,0.422-0.111,0.628c-0.154,2.89-2.018,5.171-4.825,5.853C17.965,23.329,17.328,23.406,16.696,23.52z
			 M2.23,11.764c0,0,0,0-0.002,0c0,1.681-0.028,3.368,0.009,5.054c0.056,2.675,1.766,4.417,4.446,4.455
			c3.386,0.047,6.778,0.047,10.163,0c2.658-0.042,4.387-1.766,4.424-4.418c0.053-3.41,0.057-6.814,0-10.227
			c-0.041-2.62-1.771-4.349-4.384-4.388c-3.425-0.053-6.854-0.057-10.284,0c-2.588,0.043-4.28,1.768-4.361,4.352
			C2.188,8.316,2.23,10.04,2.23,11.764z"/>
		<path fill-rule="evenodd" clip-rule="evenodd" fill="#C8C8C8" d="M12.065,17.79c-3.226,0.281-6.09-2.261-6.345-5.713
			c-0.243-3.32,2.368-6.15,5.696-6.379c3.022-0.208,6.037,2.289,6.354,5.232C18.204,14.96,15.063,17.754,12.065,17.79z M11.78,15.64
			c2.142,0,3.866-1.734,3.866-3.882c0-2.181-1.728-3.894-3.913-3.89c-2.168,0.006-3.869,1.737-3.861,3.938
			C7.876,13.934,9.62,15.644,11.78,15.64z"/>
		<path fill-rule="evenodd" clip-rule="evenodd" fill="#C8C8C8" d="M18.04,4.052c0.771,0,1.415,0.636,1.424,1.409
			c0.01,0.788-0.66,1.467-1.443,1.459c-0.757-0.007-1.415-0.66-1.431-1.422C16.577,4.712,17.243,4.039,18.04,4.052z"/>
	</g>
</g>
</svg>
