<?xml version="1.0" encoding="utf-8"?>
<!-- Generator: Adobe Illustrator 16.0.0, SVG Export Plug-In . SVG Version: 6.00 Build 0)  -->
<!DOCTYPE svg PUBLIC "-//W3C//DTD SVG 1.1//EN" "http://www.w3.org/Graphics/SVG/1.1/DTD/svg11.dtd">
<svg version="1.1" id="Capa_1" xmlns="http://www.w3.org/2000/svg" xmlns:xlink="http://www.w3.org/1999/xlink" x="0px" y="0px"
	 width="23.521px" height="23.547px" viewBox="0 0 23.521 23.547" enable-background="new 0 0 23.521 23.547" xml:space="preserve">
<path fill-rule="evenodd" clip-rule="evenodd" fill="#C8C8C8" d="M0.014,11.759C0.014,8.47,0.043,5.182,0,1.893
	C-0.016,0.624,0.944-0.003,1.901,0c6.588,0.018,13.175,0.016,19.764,0.003c1.025-0.002,1.86,0.745,1.856,1.845
	c-0.026,6.618-0.026,13.236,0,19.854c0.004,1.104-0.837,1.847-1.857,1.845c-6.608-0.013-13.217-0.013-19.825-0.001
	c-0.951,0.003-1.848-0.677-1.836-1.829C0.036,18.398,0.014,15.078,0.014,11.759z M16.537,20.108c1.103,0,2.15-0.012,3.198,0.008
	c0.305,0.005,0.399-0.072,0.396-0.388c-0.014-1.995,0.015-3.991-0.018-5.985c-0.014-0.777-0.093-1.564-0.248-2.326
	c-0.284-1.402-1.075-2.412-2.527-2.743c-0.538-0.122-1.106-0.145-1.66-0.154c-0.852-0.016-1.624,0.263-2.283,0.802
	c-0.306,0.25-0.563,0.558-0.842,0.837c0-0.347-0.016-0.704,0.005-1.059c0.018-0.278-0.094-0.346-0.353-0.343
	c-0.896,0.013-1.792,0.005-2.688,0.005C9.104,8.763,9.103,8.764,9.102,9.193c0,1.385,0,2.769,0,4.153
	c0,2.137,0.004,4.274-0.004,6.412c0,0.251,0.056,0.361,0.339,0.356c0.978-0.017,1.954-0.007,2.932-0.007
	c0.097-0.001,0.194-0.012,0.31-0.018c0-0.157,0-0.278,0-0.399c0-1.659-0.021-3.319,0.012-4.978c0.012-0.622,0.084-1.262,0.252-1.859
	c0.244-0.871,1.006-1.261,2.062-1.177c0.751,0.06,1.278,0.582,1.411,1.446c0.069,0.45,0.114,0.908,0.118,1.363
	c0.013,1.74,0.005,3.48,0.005,5.222C16.537,19.828,16.537,19.947,16.537,20.108z M6.976,20.107c0.01-0.104,0.021-0.174,0.021-0.242
	c0-3.604-0.001-7.208,0.005-10.813c0-0.232-0.082-0.296-0.302-0.294C5.742,8.768,4.786,8.762,3.828,8.762
	C3.41,8.763,3.409,8.764,3.409,9.186c-0.001,3.502,0,7.005,0,10.508c0,0.07-0.022,0.155,0.008,0.21
	c0.044,0.079,0.127,0.195,0.194,0.195C4.721,20.111,5.83,20.107,6.976,20.107z M3.158,5.231c-0.09,0.984,0.762,2.1,2.053,2.105
	c1.141,0.006,2.08-0.928,2.085-2.063c0.005-1.154-0.907-2.074-2.06-2.077C4.051,3.194,3.159,4.065,3.158,5.231z"/>
</svg>
