<?xml version="1.0" encoding="utf-8"?>
<!-- Generator: Adobe Illustrator 16.0.0, SVG Export Plug-In . SVG Version: 6.00 Build 0)  -->
<!DOCTYPE svg PUBLIC "-//W3C//DTD SVG 1.1//EN" "http://www.w3.org/Graphics/SVG/1.1/DTD/svg11.dtd">
<svg version="1.1" id="Capa_1" xmlns="http://www.w3.org/2000/svg" xmlns:xlink="http://www.w3.org/1999/xlink" x="0px" y="0px"
	 width="25.005px" height="25px" viewBox="0 0 25.005 25" enable-background="new 0 0 25.005 25" xml:space="preserve">
<path fill-rule="evenodd" clip-rule="evenodd" fill="#C8C8C8" d="M12.503,0c6.905-0.001,12.505,5.603,12.502,12.508
	C25.002,19.416,19.4,25.006,12.492,25S-0.006,19.392,0,12.482C0.008,5.593,5.608,0.001,12.503,0z M17.342,8.967
	c0.01-0.646-0.221-0.865-0.701-0.805c-0.244,0.032-0.493,0.082-0.726,0.164c-2.781,0.982-5.561,1.973-8.338,2.966
	c-0.175,0.063-0.348,0.153-0.498,0.263c-0.438,0.32-0.494,0.76-0.103,1.138c0.248,0.237,0.559,0.424,0.868,0.579
	c0.745,0.371,1.503,0.714,2.26,1.06c0.558,0.253,0.945,0.658,1.194,1.218c0.315,0.704,0.644,1.401,0.986,2.092
	c0.155,0.313,0.328,0.625,0.544,0.897c0.457,0.578,0.937,0.525,1.285-0.121c0.118-0.218,0.227-0.445,0.307-0.679
	c0.896-2.601,1.79-5.203,2.675-7.807C17.219,9.568,17.286,9.186,17.342,8.967z"/>
</svg>
