<?xml version="1.0" encoding="utf-8"?>
<!-- Generator: Adobe Illustrator 16.0.0, SVG Export Plug-In . SVG Version: 6.00 Build 0)  -->
<!DOCTYPE svg PUBLIC "-//W3C//DTD SVG 1.1//EN" "http://www.w3.org/Graphics/SVG/1.1/DTD/svg11.dtd">
<svg version="1.1" id="Capa_1" xmlns="http://www.w3.org/2000/svg" xmlns:xlink="http://www.w3.org/1999/xlink" x="0px" y="0px"
	 width="27.438px" height="22.523px" viewBox="0 0 27.438 22.523" enable-background="new 0 0 27.438 22.523" xml:space="preserve">
<g>
	<g>
		<path fill-rule="evenodd" clip-rule="evenodd" fill="#C8C8C8" d="M0.032,20.034C0.021,20.07,0.01,20.106,0,20.146
			c0.117,0.082,0.231,0.17,0.355,0.244c2.303,1.345,4.792,2.025,7.445,2.127c0.637,0.021,1.281-0.017,1.906-0.077
			c0.918-0.085,1.857-0.134,2.749-0.349c3.978-0.965,7.115-3.161,9.396-6.563c1.469-2.189,2.382-4.6,2.717-7.221
			c0.049-0.341,0.113-0.689,0.074-1.021c-0.102-0.939-0.14-1.831,0.875-2.342c0.056-0.028,0.104-0.081,0.152-0.125
			c0.59-0.636,1.177-1.27,1.767-1.909c-0.026-0.033-0.055-0.064-0.087-0.089c-0.957,0.247-1.913,0.494-2.869,0.75
			c-0.01-0.046-0.026-0.082-0.042-0.118c1.102-0.737,1.863-1.718,2.323-3.039c-0.168,0.081-0.265,0.138-0.363,0.174
			c-0.981,0.374-1.966,0.734-2.942,1.119c-0.239,0.093-0.379,0.013-0.547-0.146c-1.544-1.486-3.424-1.828-5.424-1.378
			c-1.662,0.373-2.875,1.438-3.646,2.967c-0.606,1.202-0.757,2.467-0.46,3.836c-4.77-0.34-8.648-2.333-11.786-5.992
			C0.222,3.993,0.778,6.489,3.231,8.596c-0.022,0.033-0.045,0.069-0.065,0.11C2.383,8.471,1.599,8.238,0.804,8.009
			c0.007,1.304,0.422,2.487,1.245,3.533c0.81,1.036,1.873,1.677,3.153,1.993c-0.006,0.04-0.006,0.084-0.01,0.129
			c-0.773,0.036-1.546,0.073-2.351,0.118c0.303,0.903,0.782,1.62,1.421,2.235c1.043,1.006,2.308,1.52,3.841,1.634
			C5.646,19.467,2.982,20.232,0.032,20.034z"/>
	</g>
</g>
</svg>
