<?xml version="1.0" encoding="utf-8"?>
<!-- Generator: Adobe Illustrator 16.0.0, SVG Export Plug-In . SVG Version: 6.00 Build 0)  -->
<!DOCTYPE svg PUBLIC "-//W3C//DTD SVG 1.1//EN" "http://www.w3.org/Graphics/SVG/1.1/DTD/svg11.dtd">
<svg version="1.1" id="Capa_1" xmlns="http://www.w3.org/2000/svg" xmlns:xlink="http://www.w3.org/1999/xlink" x="0px" y="0px"
	 width="30.974px" height="21.779px" viewBox="0 0 30.974 21.779" enable-background="new 0 0 30.974 21.779" xml:space="preserve">
<path fill-rule="evenodd" clip-rule="evenodd" fill="#C8C8C8" d="M0.014,10.874c0-0.744-0.025-1.487,0.005-2.229
	C0.06,7.646,0.144,6.649,0.21,5.653c0.057-0.865,0.211-1.71,0.488-2.534c0.545-1.618,1.679-2.518,3.35-2.732
	c0.774-0.101,1.559-0.143,2.341-0.179C7.685,0.149,8.982,0.11,10.28,0.077c1.096-0.03,2.191-0.048,3.288-0.062
	c0.945-0.012,1.89-0.017,2.835-0.016c0.879,0.003,1.758,0.016,2.636,0.03c0.869,0.016,1.739,0.03,2.607,0.062
	C22.998,0.143,24.35,0.2,25.701,0.27c0.645,0.034,1.294,0.064,1.918,0.251c1.338,0.399,2.213,1.271,2.653,2.599
	c0.269,0.816,0.428,1.648,0.485,2.504c0.066,1.017,0.164,2.034,0.191,3.053c0.035,1.349,0.027,2.699,0.012,4.049
	c-0.015,1.455-0.118,2.906-0.303,4.35c-0.103,0.799-0.32,1.574-0.691,2.294c-0.563,1.096-1.492,1.723-2.679,1.956
	c-0.587,0.115-1.19,0.155-1.789,0.187c-1.413,0.074-2.826,0.128-4.239,0.181c-0.677,0.026-1.354,0.037-2.029,0.047
	c-1.335,0.018-2.668,0.043-4.002,0.041c-1.349-0.004-2.697-0.035-4.046-0.059c-0.803-0.016-1.605-0.03-2.408-0.063
	c-1.236-0.05-2.474-0.095-3.706-0.184c-0.582-0.041-1.167-0.138-1.73-0.283c-1.299-0.335-2.163-1.158-2.604-2.433
	c-0.279-0.807-0.454-1.633-0.514-2.482c-0.076-1.078-0.157-2.155-0.204-3.234c-0.031-0.722-0.007-1.446-0.007-2.168
	C0.011,10.874,0.012,10.874,0.014,10.874z M12.29,14.909c2.796-1.449,5.564-2.886,8.368-4.338C17.85,9.106,15.079,7.66,12.29,6.204
	C12.29,9.114,12.29,11.995,12.29,14.909z"/>
</svg>
