<?xml version="1.0" encoding="utf-8"?>
<!-- Generator: Adobe Illustrator 16.0.0, SVG Export Plug-In . SVG Version: 6.00 Build 0)  -->
<!DOCTYPE svg PUBLIC "-//W3C//DTD SVG 1.1//EN" "http://www.w3.org/Graphics/SVG/1.1/DTD/svg11.dtd">
<svg version="1.1" id="Capa_1" xmlns="http://www.w3.org/2000/svg" xmlns:xlink="http://www.w3.org/1999/xlink" x="0px" y="0px"
	 width="70.932px" height="71px" viewBox="0 0 70.932 71" enable-background="new 0 0 70.932 71" xml:space="preserve">
<path fill="#FFFFFF" d="M35.466,0c-19.605,0-35.5,15.895-35.5,35.5S15.861,71,35.466,71c19.606,0,35.5-15.895,35.5-35.5
	S55.073,0,35.466,0z M27.119,26.277h-0.005l-0.503,1.078c-0.086,0.16-0.146,0.316-0.188,0.47c-0.043,0.151-0.063,0.316-0.063,0.491
	v7.709c0,1.045-0.168,2.002-0.508,2.873s-0.826,1.621-1.461,2.252c-0.636,0.629-1.404,1.119-2.313,1.472
	c-0.908,0.351-1.929,0.526-3.058,0.526c-1.138,0-2.162-0.178-3.067-0.526c-0.91-0.353-1.683-0.843-2.313-1.472
	c-0.634-0.631-1.119-1.381-1.455-2.252s-0.504-1.828-0.504-2.873v-7.583c0-0.214-0.021-0.405-0.063-0.573
	c-0.041-0.168-0.104-0.341-0.188-0.515l-0.505-1.078V26.21h5.888v0.066l-0.504,1.078c-0.084,0.16-0.147,0.316-0.188,0.47
	c-0.043,0.151-0.063,0.316-0.063,0.491v7.591c0,0.527,0.063,1.002,0.188,1.416c0.127,0.418,0.313,0.771,0.563,1.061
	c0.248,0.29,0.557,0.514,0.926,0.67c0.371,0.156,0.802,0.235,1.289,0.235s0.918-0.079,1.289-0.235
	c0.369-0.156,0.678-0.38,0.926-0.67c0.25-0.29,0.437-0.643,0.563-1.061c0.127-0.414,0.188-0.889,0.188-1.416v-7.591
	c0-0.174-0.021-0.339-0.067-0.491c-0.045-0.153-0.104-0.31-0.183-0.47l-0.504-1.078V26.21h5.886V26.277z M44.708,41.016
	c0.037,0.151,0.101,0.305,0.183,0.465l0.504,1.076v0.069h-5.474v-0.069l0.425-1.076c0.067-0.174,0.118-0.349,0.153-0.517
	c0.035-0.166,0.051-0.356,0.051-0.571V38.8l-7.1-6.276c0.053,0.32,0.09,0.648,0.108,0.984c0.018,0.336,0.028,0.684,0.028,1.044
	v5.839c0,0.215,0.021,0.406,0.062,0.572c0.043,0.168,0.104,0.342,0.188,0.516l0.504,1.076v0.07h-5.715v-0.07l0.504-1.076
	c0.076-0.16,0.138-0.313,0.183-0.465c0.047-0.146,0.067-0.313,0.067-0.496V28.104c0-0.215-0.021-0.405-0.062-0.573
	c-0.041-0.169-0.104-0.341-0.188-0.515l-0.504-1.078V25.87h3.804l8.106,7.19c-0.037-0.305-0.063-0.595-0.08-0.869
	c-0.015-0.276-0.022-0.547-0.022-0.813v-3.402c0-0.175-0.021-0.34-0.067-0.492s-0.107-0.31-0.183-0.469l-0.504-1.078V25.87h5.713
	l0.002,0.067l-0.504,1.078c-0.082,0.159-0.146,0.315-0.188,0.469c-0.043,0.151-0.063,0.316-0.063,0.492v12.541
	C44.647,40.702,44.669,40.87,44.708,41.016z M59.091,42.625H47.104v-0.07l0.504-1.076c0.082-0.174,0.146-0.348,0.188-0.516
	c0.041-0.166,0.063-0.357,0.063-0.572V28.104c0-0.215-0.021-0.405-0.063-0.573c-0.042-0.169-0.104-0.341-0.188-0.515l-0.504-1.078
	V25.87h5.885v0.065l-0.502,1.078c-0.086,0.16-0.147,0.316-0.188,0.471c-0.043,0.15-0.063,0.315-0.063,0.49v11.043h4.479
	c0.183,0,0.358-0.007,0.527-0.021c0.168-0.011,0.336-0.035,0.504-0.072c0.168-0.036,0.342-0.09,0.521-0.153
	c0.179-0.065,0.366-0.15,0.565-0.258l1.123-0.597l0.058,0.033L59.091,42.625z"/>
</svg>
